<?xml version="1.0" encoding="utf-8"?>
<!-- Uploaded to: SVG Repo, www.svgrepo.com, Generator: SVG Repo Mixer Tools -->
<svg width="800px" height="800px" viewBox="0 0 1024 1024" fill="#000000" class="icon"  version="1.1" xmlns="http://www.w3.org/2000/svg"><path d="M552.0285 863.954H136.0825c-4.422 0-8-3.578-8-7.996 0-4.422 3.578-8 8-8h415.946a7.994 7.994 0 0 1 7.998 8 7.992 7.992 0 0 1-7.998 7.996zM8.0985 735.972a7.994 7.994 0 0 1-7.998-8V168.044c0-4.42 3.578-8 7.998-8 4.422 0 8 3.578 8 8v559.928c0 4.422-3.578 8-8 8z" fill="" /><path d="M88.0885 176.044H8.0985c-4.42 0-7.998-3.578-7.998-8s3.578-8 7.998-8h79.99c4.42 0 7.998 3.578 7.998 8s-3.576 8-7.998 8zM744.0025 176.044H664.0145c-4.422 0-8-3.578-8-8s3.578-8 8-8h79.988c4.422 0 8 3.578 8 8s-3.578 8-8 8z" fill="" /><path d="M744.0025 240.036a7.994 7.994 0 0 1-7.998-8V168.044c0-4.42 3.578-8 7.998-8 4.422 0 8 3.578 8 8v63.992c0 4.422-3.578 8-8 8zM648.0165 320.026H8.0985c-4.42 0-7.998-3.578-7.998-8s3.578-8 7.998-8h639.918c4.42 0 7.998 3.578 7.998 8s-3.578 8-7.998 8zM408.0485 432.01h-63.992c-4.422 0-8-3.578-8-8V360.02c0-4.422 3.578-8 8-8h63.992a7.994 7.994 0 0 1 7.998 8v63.992a7.994 7.994 0 0 1-7.998 7.998z m-55.994-15.998h47.994v-47.994H352.0545v47.994zM504.0425 432.01h-64c-4.42 0-8-3.578-8-8V360.02c0-4.422 3.578-8 8-8h64c4.422 0 8 3.578 8 8v63.992a7.994 7.994 0 0 1-8 7.998z m-56-15.998h48.002v-47.994h-48.002v47.994zM536.0305 432.01a7.994 7.994 0 0 1-7.998-8V360.02c0-4.422 3.576-8 7.998-8h63.992a7.994 7.994 0 0 1 7.998 8 7.994 7.994 0 0 1-7.998 7.998h-55.992v55.994a7.994 7.994 0 0 1-8 7.998zM120.0845 528H56.0925c-4.422 0-8-3.578-8-8v-63.992c0-4.42 3.578-8 8-8h63.992a7.994 7.994 0 0 1 7.998 8V520c0 4.422-3.576 8-7.998 8z m-55.992-16h47.994v-47.994H64.0925V512zM216.0725 528H152.0805c-4.422 0-8-3.578-8-8v-63.992c0-4.42 3.578-8 8-8h63.992c4.42 0 8 3.578 8 8V520c0 4.422-3.58 8-8 8z m-55.994-16h47.994v-47.994H160.0785V512zM312.0605 528h-63.992a7.994 7.994 0 0 1-7.998-8v-63.992c0-4.42 3.578-8 7.998-8h63.992c4.422 0 8 3.578 8 8V520a7.996 7.996 0 0 1-8 8z m-55.992-16h47.994v-47.994h-47.994V512zM408.0485 528h-63.992c-4.422 0-8-3.578-8-8v-63.992c0-4.42 3.578-8 8-8h63.992a7.994 7.994 0 0 1 7.998 8V520c0 4.422-3.578 8-7.998 8z m-55.994-16h47.994v-47.994H352.0545V512zM504.0425 528h-64c-4.42 0-8-3.578-8-8v-63.992c0-4.42 3.578-8 8-8h64c4.422 0 8 3.578 8 8V520c0 4.422-3.578 8-8 8z m-56-16h48.002v-47.994h-48.002V512zM536.0305 480.004a7.994 7.994 0 0 1-7.998-8v-15.998c0-4.42 3.576-8 7.998-8s8 3.578 8 8v15.998c0 4.422-3.578 8-8 8zM120.0845 623.984H56.0925c-4.422 0-8-3.578-8-7.996v-63.992c0-4.422 3.578-8 8-8h63.992a7.994 7.994 0 0 1 7.998 8v63.992a7.992 7.992 0 0 1-7.998 7.996z m-55.992-15.996h47.994v-47.996H64.0925v47.996zM216.0725 623.984H152.0805c-4.422 0-8-3.578-8-7.996v-63.992c0-4.422 3.578-8 8-8h63.992c4.42 0 8 3.578 8 8v63.992a7.996 7.996 0 0 1-8 7.996z m-55.994-15.996h47.994v-47.996H160.0785v47.996zM312.0605 623.984h-63.992a7.994 7.994 0 0 1-7.998-7.996v-63.992c0-4.422 3.578-8 7.998-8h63.992c4.422 0 8 3.578 8 8v63.992a7.996 7.996 0 0 1-8 7.996z m-55.992-15.996h47.994v-47.996h-47.994v47.996zM408.0485 623.984h-63.992c-4.422 0-8-3.578-8-7.996v-63.992c0-4.422 3.578-8 8-8h63.992a7.994 7.994 0 0 1 7.998 8v63.992a7.994 7.994 0 0 1-7.998 7.996z m-55.994-15.996h47.994v-47.996H352.0545v47.996zM440.0425 623.984c-4.42 0-8-3.578-8-7.996v-63.992c0-4.422 3.578-8 8-8h64c4.422 0 8 3.578 8 8s-3.578 7.996-8 7.996h-56v55.996a7.994 7.994 0 0 1-8 7.996zM312.0605 719.972h-63.992a7.994 7.994 0 0 1-7.998-8v-63.988c0-4.422 3.578-8 7.998-8h63.992c4.422 0 8 3.578 8 8v63.988a7.996 7.996 0 0 1-8 8z m-55.992-15.996h47.994V655.98h-47.994v47.996zM408.0485 719.972h-63.992c-4.422 0-8-3.578-8-8v-63.988c0-4.422 3.578-8 8-8h63.992a7.994 7.994 0 0 1 7.998 8v63.988c0 4.422-3.578 8-7.998 8z m-55.994-15.996h47.994V655.98H352.0545v47.996zM488.0445 719.972h-48c-4.42 0-8-3.578-8-8v-63.988c0-4.422 3.578-8 8-8h48c4.422 0 8 3.578 8 8a7.994 7.994 0 0 1-8 7.996h-40.002v47.996h40.002c4.422 0 8 3.578 8 7.996 0 4.422-3.578 8-8 8zM312.0605 815.96h-63.992a7.994 7.994 0 0 1-7.998-8v-63.992a7.994 7.994 0 0 1 7.998-7.996h63.992c4.422 0 8 3.578 8 7.996v63.992a7.996 7.996 0 0 1-8 8z m-55.992-15.996h47.994v-47.996h-47.994v47.996zM408.0485 815.96h-63.992c-4.422 0-8-3.578-8-8v-63.992a7.994 7.994 0 0 1 8-7.996h63.992a7.994 7.994 0 0 1 7.998 7.996v63.992c0 4.422-3.578 8-7.998 8z m-55.994-15.996h47.994v-47.996H352.0545v47.996zM504.0425 815.96h-64c-4.42 0-8-3.578-8-8v-63.992c0-4.418 3.578-7.996 8-7.996s8 3.578 8 7.996v55.996h56c4.422 0 8 3.574 8 7.996s-3.578 8-8 8zM584.0245 895.95H8.0985a7.994 7.994 0 0 1-7.998-7.996c0-4.422 3.578-8 7.998-8h575.926a7.994 7.994 0 0 1 7.998 8 7.992 7.992 0 0 1-7.998 7.996zM632.0185 927.946H8.0985a7.994 7.994 0 0 1-7.998-7.996c0-4.422 3.578-8 7.998-8h623.92a7.994 7.994 0 0 1 7.998 8 7.992 7.992 0 0 1-7.998 7.996zM136.0825 863.954a7.976 7.976 0 0 1-5.656-2.344l-127.984-127.98a8 8 0 1 1 11.312-11.312l127.982 127.984a7.994 7.994 0 0 1-5.654 13.652z" fill="" /><path d="M136.0825 863.954c-4.422 0-8-3.578-8-7.996v-127.984c0-4.422 3.578-8 8-8a7.994 7.994 0 0 1 7.998 8v127.984a7.992 7.992 0 0 1-7.998 7.996z" fill="" /><path d="M136.0825 735.972H8.0985c-4.42 0-7.998-3.578-7.998-8s3.578-8 7.998-8h127.984c4.42 0 7.998 3.578 7.998 8s-3.576 8-7.998 8zM8.0985 895.95a7.994 7.994 0 0 1-7.998-7.996v-115.316a7.994 7.994 0 0 1 7.998-7.996c4.422 0 8 3.578 8 7.996v115.316a7.994 7.994 0 0 1-8 7.996zM120.0845 655.98H56.0925c-4.422 0-8-3.578-8-7.996 0-4.422 3.578-8 8-8h63.992a7.994 7.994 0 0 1 7.998 8 7.992 7.992 0 0 1-7.998 7.996z" fill="" /><path d="M120.0845 703.976c-4.422 0-8-3.578-8-8v-47.992c0-4.422 3.578-8 8-8a7.994 7.994 0 0 1 7.998 8v47.992c0 4.422-3.576 8-7.998 8zM56.0925 703.976c-4.422 0-8-3.578-8-8v-47.992c0-4.422 3.578-8 8-8s8 3.578 8 8v47.992c0 4.422-3.578 8-8 8zM152.0805 703.976c-4.422 0-8-3.578-8-8v-47.992c0-4.422 3.578-8 8-8a7.994 7.994 0 0 1 7.998 8v47.992c0 4.422-3.578 8-7.998 8z" fill="" /><path d="M216.0725 655.98H152.0805c-4.422 0-8-3.578-8-7.996 0-4.422 3.578-8 8-8h63.992a7.996 7.996 0 1 1 0 15.996z" fill="" /><path d="M216.0725 719.972c-4.42 0-8-3.578-8-8v-63.988c0-4.422 3.578-8 8-8s8 3.578 8 8v63.988c0 4.422-3.58 8-8 8z" fill="" /><path d="M216.0725 719.972H168.0785a7.996 7.996 0 1 1 0-15.996h47.994a7.996 7.996 0 1 1 0 15.996zM216.0725 815.96c-4.42 0-8-3.578-8-8v-63.992c0-4.418 3.578-7.996 8-7.996s8 3.578 8 7.996v63.992c0 4.422-3.58 8-8 8z" fill="" /><path d="M216.0725 815.96H168.0785c-4.42 0-8-3.578-8-8s3.578-7.996 8-7.996h47.994c4.42 0 8 3.574 8 7.996s-3.58 8-8 8zM216.0725 751.968H168.0785a7.996 7.996 0 1 1 0-15.996h47.994a7.996 7.996 0 1 1 0 15.996zM112.0845 288.03H64.0925c-4.42 0-8-3.578-8-8a7.994 7.994 0 0 1 8-7.998h47.994a8 8 0 1 1-0.002 15.998zM208.0745 288.03H160.0785a7.994 7.994 0 0 1-7.998-8 7.994 7.994 0 0 1 7.998-7.998h47.994c4.422 0 8 3.578 8 7.998 0 4.422-3.578 8-7.998 8zM304.0605 288.03h-47.994c-4.422 0-8-3.578-8-8a7.994 7.994 0 0 1 8-7.998h47.994c4.42 0 8 3.578 8 7.998 0 4.422-3.578 8-8 8zM400.0485 288.03H352.0545a7.994 7.994 0 0 1-7.998-8 7.994 7.994 0 0 1 7.998-7.998h47.994c4.422 0 8 3.578 8 7.998 0 4.422-3.578 8-8 8zM496.0445 288.03h-47.994c-4.422 0-8-3.578-8-8a7.994 7.994 0 0 1 8-7.998h47.994a7.994 7.994 0 0 1 7.998 7.998c0 4.422-3.578 8-7.998 8zM592.0225 288.03h-47.992c-4.422 0-8-3.578-8-8a7.994 7.994 0 0 1 8-7.998h47.992c4.422 0 8 3.578 8 7.998 0 4.422-3.578 8-8 8zM688.0105 288.03h-47.994a7.994 7.994 0 0 1-7.998-8 7.994 7.994 0 0 1 7.998-7.998h47.994c4.422 0 8 3.578 8 7.998 0 4.422-3.578 8-8 8zM136.0825 240.036c-13.234 0-23.998-10.764-23.998-23.998V120.052c0-13.232 10.764-23.998 23.998-23.998 13.232 0 23.996 10.766 23.996 23.998v95.988c0 13.232-10.762 23.996-23.996 23.996z m0-127.984c-4.414 0-8 3.586-8 8v95.988c0 4.414 3.586 8 8 8a8.004 8.004 0 0 0 7.998-8V120.052c0-4.414-3.584-8-7.998-8zM296.0625 240.036c-13.232 0-23.996-10.764-23.996-23.998V120.052c0-13.232 10.764-23.998 23.996-23.998s23.998 10.766 23.998 23.998v95.988c-0.002 13.232-10.766 23.996-23.998 23.996z m0-127.984a8.004 8.004 0 0 0-7.998 8v95.988c0 4.414 3.584 8 7.998 8s8-3.586 8-8V120.052a8.006 8.006 0 0 0-8-8zM456.0485 240.036c-13.234 0-24.004-10.764-24.004-23.998V120.052c0-13.232 10.772-23.998 24.004-23.998 13.232 0 23.998 10.766 23.998 23.998v95.988c0 13.232-10.764 23.996-23.998 23.996z m0-127.984a8.01 8.01 0 0 0-8.006 8v95.988c0 4.414 3.594 8 8.006 8s8-3.586 8-8V120.052c0-4.414-3.586-8-8-8zM616.0205 240.036c-13.232 0-23.998-10.764-23.998-23.998V120.052c0-13.232 10.766-23.998 23.998-23.998s23.996 10.766 23.996 23.998v95.988c0 13.232-10.764 23.996-23.996 23.996z m0-127.984c-4.406 0-8 3.586-8 8v95.988c0 4.414 3.594 8 8 8a8.01 8.01 0 0 0 7.998-8V120.052c0-4.414-3.594-8-7.998-8zM248.0685 176.044H184.0765c-4.42 0-8-3.578-8-8s3.578-8 8-8h63.992c4.422 0 8 3.578 8 8s-3.578 8-8 8zM408.0485 176.044h-63.992c-4.422 0-8-3.578-8-8s3.578-8 8-8h63.992c4.42 0 7.998 3.578 7.998 8s-3.578 8-7.998 8zM568.0265 176.044h-63.984c-4.42 0-7.998-3.578-7.998-8s3.578-8 7.998-8h63.984c4.422 0 8 3.578 8 8s-3.578 8-8 8zM768.0005 927.946c-4.422 0-8-3.578-8-7.996 0-4.422 3.578-8 8-8 132.326 0 239.968-107.644 239.968-239.968 0-4.422 3.576-8 7.998-8s8 3.578 8 8c0.002 141.136-114.826 255.964-255.966 255.964z" fill="" /><path d="M768.0005 927.946c-141.138 0-255.958-114.828-255.958-255.964 0-4.422 3.578-8 7.998-8a8.002 8.002 0 0 1 8.008 8c0 132.324 107.642 239.968 239.954 239.968a7.996 7.996 0 1 1-0.002 15.996z" fill="" /><path d="M1015.9685 679.976a7.99 7.99 0 0 1-7.998-7.996c0-150.754-97.644-273.762-120.906-300.916-17.264 13.208-66.304 44.962-100.706 10.616-28.558-28.662-17.936-84.334-9.032-115.072-60.696 40.082-249.28 182.578-249.28 405.37a8 8 0 0 1-8.008 7.996 7.992 7.992 0 0 1-7.998-7.996c0-273.684 273.3-429.39 276.05-430.928a8.052 8.052 0 0 1 9.186 0.976 7.988 7.988 0 0 1 2.14 8.982c-0.344 0.86-34.2 86.8-1.75 119.36 30.934 30.824 84.458-15.858 85.004-16.334a7.994 7.994 0 0 1 11.154 0.516c5.312 5.672 130.14 140.896 130.14 317.428a7.986 7.986 0 0 1-7.996 7.998z" fill="" /><path d="M768.4865 496.002c-4.422 0-8.078-3.578-8.078-8 0-4.42 3.5-7.998 7.906-7.998h0.172a8.004 8.004 0 0 1 7.998 7.998c0 4.422-3.594 8-7.998 8zM768.4865 863.954c-4.422 0-8.078-3.578-8.078-7.996 0-4.422 3.5-8 7.906-8h0.172a8.006 8.006 0 0 1 7.998 8 8.004 8.004 0 0 1-7.998 7.996zM676.4965 520.656c-4.422 0-8.078-3.578-8.078-8 0-4.422 3.5-8 7.906-8h0.172a8.006 8.006 0 0 1 7.998 8c0 4.422-3.592 8-7.998 8zM860.4725 839.3c-4.42 0-8.076-3.578-8.076-8 0-4.418 3.5-7.996 7.904-7.996h0.172c4.406 0 8 3.578 8 7.996 0 4.422-3.594 8-8 8zM609.1305 587.992c-4.42 0-8.076-3.578-8.076-8s3.5-8 7.904-8h0.172c4.406 0 8 3.578 8 8s-3.594 8-8 8zM927.8085 771.964c-4.422 0-8.076-3.574-8.076-7.996s3.498-8 7.904-8h0.172c4.406 0 8 3.578 8 8s-3.594 7.996-8 7.996zM584.4785 679.976c-4.422 0-8.076-3.574-8.076-7.996s3.498-8 7.904-8h0.172a8 8 0 0 1 0 15.996zM952.4285 679.976c-4.42 0-8.076-3.574-8.076-7.996s3.5-8 7.904-8h0.172c4.406 0 8 3.578 8 8s-3.594 7.996-8 7.996zM609.0985 771.98c-4.42 0-8.076-3.574-8.076-7.996s3.5-8 7.904-8h0.172c4.406 0 8 3.578 8 8s-3.594 7.996-8 7.996zM927.7765 587.992c-4.422 0-8.076-3.578-8.076-8s3.498-8 7.904-8h0.172c4.406 0 8 3.578 8 8s-3.594 8-8 8zM676.4665 839.332c-4.422 0-8.078-3.578-8.078-8 0-4.418 3.5-7.996 7.906-7.996h0.172a8.004 8.004 0 0 1 7.998 7.996c0 4.422-3.594 8-7.998 8zM860.4405 520.672c-4.42 0-8.076-3.578-8.076-8 0-4.422 3.5-8 7.904-8h0.172c4.406 0 8 3.578 8 8 0 4.422-3.594 8-8 8z" fill="" /><path d="M768.0005 895.95c-123.5 0-223.97-100.468-223.97-223.968s100.47-223.972 223.97-223.972c123.498 0 223.97 100.472 223.97 223.972s-100.472 223.968-223.97 223.968z m0-431.944c-114.674 0-207.974 93.302-207.974 207.974s93.3 207.972 207.974 207.972c114.672 0 207.972-93.3 207.972-207.972s-93.3-207.974-207.972-207.974z" fill="" /><path d="M768.0005 679.976c-4.422 0-8-3.574-8-7.996v-135.984a7.992 7.992 0 0 1 8-7.996 7.992 7.992 0 0 1 7.998 7.996v135.984a7.992 7.992 0 0 1-7.998 7.996z" fill="" /><path d="M855.9905 767.968a7.976 7.976 0 0 1-5.656-2.344l-87.988-87.988a8 8 0 0 1 11.31-11.312l87.988 87.988a8 8 0 0 1-5.654 13.656z" fill="" /><path d="M488.0445 623.984h-48c-4.42 0-8-3.578-8-7.996 0-4.422 3.578-8 8-8h48c4.422 0 8 3.578 8 8a7.994 7.994 0 0 1-8 7.996z" fill="" /><path d="M600.0225 384.016c-4.422 0-8-3.578-8-7.998v-15.998c0-4.422 3.578-8 8-8s7.998 3.578 7.998 8v15.998a7.992 7.992 0 0 1-7.998 7.998z" fill="" /><path d="M552.0285 432.01h-15.998c-4.422 0-7.998-3.578-7.998-8s3.576-8 7.998-8h15.998c4.422 0 7.998 3.578 7.998 8s-3.576 8-7.998 8z" fill="" /><path d="M504.0425 815.96a7.994 7.994 0 0 1-7.998-8v-31.996a7.992 7.992 0 0 1 7.998-7.996c4.422 0 8 3.574 8 7.996v31.996c0 4.422-3.578 8-8 8z" fill="" /><path d="M488.0445 751.968h-48a7.996 7.996 0 1 1 0-15.996h48c4.422 0 8 3.578 8 7.996 0 4.422-3.578 8-8 8z" fill="" /></svg>